<svg xmlns="http://www.w3.org/2000/svg" width="1440" height="900"><path d="M752,485L464,480L696,676Z" fill="#66c19f" stroke="#66c19f" stroke-width="1.51"/><path d="M464,480L403,698L696,676Z" fill="#6cc2a0" stroke="#6cc2a0" stroke-width="1.51"/><path d="M752,485L461,220L464,480Z" fill="#7acbb1" stroke="#7acbb1" stroke-width="1.51"/><path d="M464,480L225,404L403,698Z" fill="#7fccb1" stroke="#7fccb1" stroke-width="1.51"/><path d="M950,767L966,447L752,485Z" fill="#54b88c" stroke="#54b88c" stroke-width="1.51"/><path d="M752,485L692,152L461,220Z" fill="#80cdb5" stroke="#80cdb5" stroke-width="1.51"/><path d="M966,447L692,152L752,485Z" fill="#6cc4a4" stroke="#6cc4a4" stroke-width="1.51"/><path d="M461,220L225,404L464,480Z" fill="#8bd2be" stroke="#8bd2be" stroke-width="1.51"/><path d="M696,676L950,767L752,485Z" fill="#53b88b" stroke="#53b88b" stroke-width="1.51"/><path d="M703,1042L950,767L696,676Z" fill="#4aac79" stroke="#4aac79" stroke-width="1.51"/><path d="M394,1006L703,1042L696,676Z" fill="#54ac7d" stroke="#54ac7d" stroke-width="1.51"/><path d="M225,404L165,777L403,698Z" fill="#82cbac" stroke="#82cbac" stroke-width="1.51"/><path d="M394,1006L696,676L403,698Z" fill="#63b88f" stroke="#63b88f" stroke-width="1.51"/><path d="M165,777L394,1006L403,698Z" fill="#71bc95" stroke="#71bc95" stroke-width="1.51"/><path d="M-155,486L-109,777L165,777Z" fill="#92d0b2" stroke="#92d0b2" stroke-width="1.51"/><path d="M461,220L155,209L225,404Z" fill="#9ddaca" stroke="#9ddaca" stroke-width="1.51"/><path d="M423,-120L155,209L461,220Z" fill="#aadfd2" stroke="#aadfd2" stroke-width="1.51"/><path d="M966,447L1046,176L692,152Z" fill="#71c5a5" stroke="#71c5a5" stroke-width="1.51"/><path d="M1316,418L1046,176L966,447Z" fill="#5eb88e" stroke="#5eb88e" stroke-width="1.51"/><path d="M950,767L1245,759L966,447Z" fill="#43ae77" stroke="#43ae77" stroke-width="1.51"/><path d="M703,1042L1034,948L950,767Z" fill="#3da168" stroke="#3da168" stroke-width="1.51"/><path d="M394,1006L455,1265L703,1042Z" fill="#52a275" stroke="#52a275" stroke-width="1.51"/><path d="M165,777L223,1048L394,1006Z" fill="#70b58b" stroke="#70b58b" stroke-width="1.51"/><path d="M1034,948L1245,759L950,767Z" fill="#37a164" stroke="#37a164" stroke-width="1.51"/><path d="M692,152L423,-120L461,220Z" fill="#9edac9" stroke="#9edac9" stroke-width="1.51"/><path d="M766,-141L423,-120L692,152Z" fill="#a3dbcb" stroke="#a3dbcb" stroke-width="1.51"/><path d="M977,-145L766,-141L692,152Z" fill="#97d5be" stroke="#97d5be" stroke-width="1.51"/><path d="M1245,759L1316,418L966,447Z" fill="#48ab78" stroke="#48ab78" stroke-width="1.51"/><path d="M1046,176L977,-145L692,152Z" fill="#88ceb1" stroke="#88ceb1" stroke-width="1.51"/><path d="M223,1048L455,1265L394,1006Z" fill="#60a87d" stroke="#60a87d" stroke-width="1.51"/><path d="M703,1042L1011,1285L1034,948Z" fill="#33955d" stroke="#33955d" stroke-width="1.51"/><path d="M165,777L-146,998L223,1048Z" fill="#7ebb93" stroke="#7ebb93" stroke-width="1.51"/><path d="M223,1048L220,1315L455,1265Z" fill="#61a17b" stroke="#61a17b" stroke-width="1.51"/><path d="M-155,486L165,777L225,404Z" fill="#95d3bb" stroke="#95d3bb" stroke-width="1.51"/><path d="M455,1265L714,1297L703,1042Z" fill="#45976a" stroke="#45976a" stroke-width="1.51"/><path d="M1034,948L1316,996L1245,759Z" fill="#2c9453" stroke="#2c9453" stroke-width="1.51"/><path d="M155,209L-155,486L225,404Z" fill="#a5dccc" stroke="#a5dccc" stroke-width="1.51"/><path d="M-136,153L-155,486L155,209Z" fill="#b2e1d6" stroke="#b2e1d6" stroke-width="1.51"/><path d="M1287,-93L977,-145L1046,176Z" fill="#87c8a6" stroke="#87c8a6" stroke-width="1.51"/><path d="M1316,418L1307,184L1046,176Z" fill="#63b68b" stroke="#63b68b" stroke-width="1.51"/><path d="M423,-120L122,-81L155,209Z" fill="#bee7de" stroke="#bee7de" stroke-width="1.51"/><path d="M1245,759L1540,476L1316,418Z" fill="#3ea169" stroke="#3ea169" stroke-width="1.51"/><path d="M1238,1314L1316,996L1034,948Z" fill="#228947" stroke="#228947" stroke-width="1.51"/><path d="M122,-81L-136,153L155,209Z" fill="#c2e8e0" stroke="#c2e8e0" stroke-width="1.51"/><path d="M714,1297L1011,1285L703,1042Z" fill="#36905e" stroke="#36905e" stroke-width="1.51"/><path d="M455,1265L427,1529L714,1297Z" fill="#478a68" stroke="#478a68" stroke-width="1.51"/><path d="M-111,1218L220,1315L223,1048Z" fill="#71a983" stroke="#71a983" stroke-width="1.51"/><path d="M-109,777L-146,998L165,777Z" fill="#88c39f" stroke="#88c39f" stroke-width="1.51"/><path d="M-365,1014L-146,998L-109,777Z" fill="#8bc09c" stroke="#8bc09c" stroke-width="1.51"/><path d="M741,-389L445,-332L766,-141Z" fill="#aedfd2" stroke="#aedfd2" stroke-width="1.51"/><path d="M766,-141L445,-332L423,-120Z" fill="#b2e1d6" stroke="#b2e1d6" stroke-width="1.51"/><path d="M423,-120L192,-359L122,-81Z" fill="#c9ebe6" stroke="#c9ebe6" stroke-width="1.51"/><path d="M977,-145L741,-389L766,-141Z" fill="#a0d7c4" stroke="#a0d7c4" stroke-width="1.51"/><path d="M1307,184L1287,-93L1046,176Z" fill="#76bd96" stroke="#76bd96" stroke-width="1.51"/><path d="M1316,418L1498,206L1307,184Z" fill="#5cad80" stroke="#5cad80" stroke-width="1.51"/><path d="M1307,184L1498,206L1287,-93Z" fill="#6fb48a" stroke="#6fb48a" stroke-width="1.51"/><path d="M1567,735L1540,476L1245,759Z" fill="#32985c" stroke="#32985c" stroke-width="1.51"/><path d="M1026,-415L741,-389L977,-145Z" fill="#a0d6bf" stroke="#a0d6bf" stroke-width="1.51"/><path d="M1540,476L1498,206L1316,418Z" fill="#4ea475" stroke="#4ea475" stroke-width="1.51"/><path d="M-386,438L-361,672L-155,486Z" fill="#a6d9c6" stroke="#a6d9c6" stroke-width="1.51"/><path d="M-155,486L-361,672L-109,777Z" fill="#9bd4ba" stroke="#9bd4ba" stroke-width="1.51"/><path d="M1316,996L1567,735L1245,759Z" fill="#28904d" stroke="#28904d" stroke-width="1.51"/><path d="M-365,1014L-111,1218L-146,998Z" fill="#84b693" stroke="#84b693" stroke-width="1.51"/><path d="M-146,998L-111,1218L223,1048Z" fill="#7bb28d" stroke="#7bb28d" stroke-width="1.51"/><path d="M1316,996L1491,1043L1567,735Z" fill="#1e8540" stroke="#1e8540" stroke-width="1.51"/><path d="M1011,1285L1238,1314L1034,948Z" fill="#22874a" stroke="#22874a" stroke-width="1.51"/><path d="M1242,1518L1238,1314L1011,1285Z" fill="#1b733d" stroke="#1b733d" stroke-width="1.51"/><path d="M990,1573L1011,1285L714,1297Z" fill="#2b7d50" stroke="#2b7d50" stroke-width="1.51"/><path d="M445,-332L192,-359L423,-120Z" fill="#c4e9e3" stroke="#c4e9e3" stroke-width="1.51"/><path d="M122,-81L-155,-142L-136,153Z" fill="#d2efea" stroke="#d2efea" stroke-width="1.51"/><path d="M741,-389L192,-359L445,-332Z" fill="#c0e7df" stroke="#c0e7df" stroke-width="1.51"/><path d="M-398,211L-386,438L-155,486Z" fill="#b2e0d4" stroke="#b2e0d4" stroke-width="1.51"/><path d="M-398,211L-155,486L-136,153Z" fill="#b9e4db" stroke="#b9e4db" stroke-width="1.51"/><path d="M220,1315L427,1529L455,1265Z" fill="#559070" stroke="#559070" stroke-width="1.51"/><path d="M140,1502L427,1529L220,1315Z" fill="#5c9073" stroke="#5c9073" stroke-width="1.51"/><path d="M1238,1314L1491,1043L1316,996Z" fill="#177e3a" stroke="#177e3a" stroke-width="1.51"/><path d="M-72,-423L-155,-142L122,-81Z" fill="#dbf2f2" stroke="#dbf2f2" stroke-width="1.51"/><path d="M741,-389L-72,-423L192,-359Z" fill="#ceede8" stroke="#ceede8" stroke-width="1.51"/><path d="M1237,-352L1026,-415L977,-145Z" fill="#98cfb2" stroke="#98cfb2" stroke-width="1.51"/><path d="M427,1529L720,1596L714,1297Z" fill="#3e8461" stroke="#3e8461" stroke-width="1.51"/><path d="M-416,-54L-398,211L-136,153Z" fill="#ceede8" stroke="#ceede8" stroke-width="1.51"/><path d="M427,1529L-341,1556L720,1596Z" fill="#5b8f72" stroke="#5b8f72" stroke-width="1.51"/><path d="M-111,1218L140,1502L220,1315Z" fill="#6c9b7d" stroke="#6c9b7d" stroke-width="1.51"/><path d="M-361,672L-365,1014L-109,777Z" fill="#93c9a8" stroke="#93c9a8" stroke-width="1.51"/><path d="M-111,1218L-99,1514L140,1502Z" fill="#6d967d" stroke="#6d967d" stroke-width="1.51"/><path d="M-429,1257L-365,1014L-361,672Z" fill="#8ebe99" stroke="#8ebe99" stroke-width="1.51"/><path d="M-429,1257L-361,672L-386,438Z" fill="#98ccac" stroke="#98ccac" stroke-width="1.51"/><path d="M720,1596L990,1573L714,1297Z" fill="#307d56" stroke="#307d56" stroke-width="1.51"/><path d="M1287,-93L1237,-352L977,-145Z" fill="#8fc8a7" stroke="#8fc8a7" stroke-width="1.51"/><path d="M1520,-376L1237,-352L1287,-93Z" fill="#8abf9b" stroke="#8abf9b" stroke-width="1.51"/><path d="M1498,206L1578,-88L1287,-93Z" fill="#75b38b" stroke="#75b38b" stroke-width="1.51"/><path d="M1863,216L1578,-88L1498,206Z" fill="#63a57d" stroke="#63a57d" stroke-width="1.51"/><path d="M1834,445L1498,206L1540,476Z" fill="#479b6d" stroke="#479b6d" stroke-width="1.51"/><path d="M1238,1314L1595,1308L1491,1043Z" fill="#0d7232" stroke="#0d7232" stroke-width="1.51"/><path d="M990,1573L1242,1518L1011,1285Z" fill="#1e7442" stroke="#1e7442" stroke-width="1.51"/><path d="M-155,-142L-416,-54L-136,153Z" fill="#d8f1ee" stroke="#d8f1ee" stroke-width="1.51"/><path d="M192,-359L-72,-423L122,-81Z" fill="#daf2f0" stroke="#daf2f0" stroke-width="1.51"/><path d="M1026,-415L-72,-423L741,-389Z" fill="#b9e3d8" stroke="#b9e3d8" stroke-width="1.51"/><path d="M-398,211L-429,1257L-386,438Z" fill="#a2d7bc" stroke="#a2d7bc" stroke-width="1.51"/><path d="M-410,-410L-416,-54L-155,-142Z" fill="#e5f6f7" stroke="#e5f6f7" stroke-width="1.51"/><path d="M-341,1556L-99,1514L-111,1218Z" fill="#749882" stroke="#749882" stroke-width="1.51"/><path d="M140,1502L-99,1514L427,1529Z" fill="#649377" stroke="#649377" stroke-width="1.51"/><path d="M1567,735L1816,699L1540,476Z" fill="#2c8f55" stroke="#2c8f55" stroke-width="1.51"/><path d="M1790,970L1816,699L1567,735Z" fill="#1d7f42" stroke="#1d7f42" stroke-width="1.51"/><path d="M1790,970L1567,735L1491,1043Z" fill="#177e3b" stroke="#177e3b" stroke-width="1.51"/><path d="M1816,699L1834,445L1540,476Z" fill="#338c5b" stroke="#338c5b" stroke-width="1.51"/><path d="M1242,1518L1595,1308L1238,1314Z" fill="#10682f" stroke="#10682f" stroke-width="1.51"/><path d="M-365,1014L-429,1257L-111,1218Z" fill="#82b18f" stroke="#82b18f" stroke-width="1.51"/><path d="M-416,-54L-429,1257L-398,211Z" fill="#adddcd" stroke="#adddcd" stroke-width="1.51"/><path d="M1820,1249L1790,970L1491,1043Z" fill="#066e2e" stroke="#066e2e" stroke-width="1.51"/><path d="M1578,-88L1520,-376L1287,-93Z" fill="#82b893" stroke="#82b893" stroke-width="1.51"/><path d="M1237,-352L1520,-376L1026,-415Z" fill="#93c6a3" stroke="#93c6a3" stroke-width="1.51"/><path d="M1784,-407L1520,-376L1578,-88Z" fill="#81b18e" stroke="#81b18e" stroke-width="1.51"/><path d="M1834,445L1863,216L1498,206Z" fill="#4d976f" stroke="#4d976f" stroke-width="1.51"/><path d="M2091,405L1863,216L1834,445Z" fill="#418663" stroke="#418663" stroke-width="1.51"/><path d="M2089,688L1834,445L1816,699Z" fill="#297d4f" stroke="#297d4f" stroke-width="1.51"/><path d="M-99,1514L-341,1556L427,1529Z" fill="#6d967d" stroke="#6d967d" stroke-width="1.51"/><path d="M-429,1257L-341,1556L-111,1218Z" fill="#7aa085" stroke="#7aa085" stroke-width="1.51"/><path d="M-72,-423L-410,-410L-155,-142Z" fill="#e8f6fa" stroke="#e8f6fa" stroke-width="1.51"/><path d="M2054,945L2089,688L1816,699Z" fill="#1c713e" stroke="#1c713e" stroke-width="1.51"/><path d="M1595,1308L1820,1249L1491,1043Z" fill="#006a2b" stroke="#006a2b" stroke-width="1.51"/><path d="M1796,1579L1820,1249L1595,1308Z" fill="#005422" stroke="#005422" stroke-width="1.51"/><path d="M1242,1518L1588,1552L1595,1308Z" fill="#09602a" stroke="#09602a" stroke-width="1.51"/><path d="M990,1573L1588,1552L1242,1518Z" fill="#146a34" stroke="#146a34" stroke-width="1.51"/><path d="M1796,1579L1588,1552L990,1573Z" fill="#0a612b" stroke="#0a612b" stroke-width="1.51"/><path d="M1863,216L1834,-145L1578,-88Z" fill="#6ca280" stroke="#6ca280" stroke-width="1.51"/><path d="M1863,216L2038,-87L1834,-145Z" fill="#67967a" stroke="#67967a" stroke-width="1.51"/><path d="M2054,945L1816,699L1790,970Z" fill="#166e37" stroke="#166e37" stroke-width="1.51"/><path d="M2089,688L2091,405L1834,445Z" fill="#307e56" stroke="#307e56" stroke-width="1.51"/><path d="M2118,1301L2054,945L1820,1249Z" fill="#005823" stroke="#005823" stroke-width="1.51"/><path d="M1820,1249L2054,945L1790,970Z" fill="#08632b" stroke="#08632b" stroke-width="1.51"/><path d="M1834,-145L1784,-407L1578,-88Z" fill="#79a889" stroke="#79a889" stroke-width="1.51"/><path d="M1520,-376L1784,-407L1026,-415Z" fill="#8cbc98" stroke="#8cbc98" stroke-width="1.51"/><path d="M2041,-332L1784,-407L1834,-145Z" fill="#789e84" stroke="#789e84" stroke-width="1.51"/><path d="M2091,405L2073,158L1863,216Z" fill="#4a8969" stroke="#4a8969" stroke-width="1.51"/><path d="M2073,158L2038,-87L1863,216Z" fill="#5c9073" stroke="#5c9073" stroke-width="1.51"/><path d="M1588,1552L1796,1579L1595,1308Z" fill="#005723" stroke="#005723" stroke-width="1.51"/><path d="M720,1596L1796,1579L990,1573Z" fill="#1a6f3c" stroke="#1a6f3c" stroke-width="1.51"/><path d="M2038,-87L2041,-332L1834,-145Z" fill="#719780" stroke="#719780" stroke-width="1.51"/><path d="M2073,158L2041,-332L2038,-87Z" fill="#6b957c" stroke="#6b957c" stroke-width="1.51"/><path d="M2091,405L2041,-332L2073,158Z" fill="#5e9074" stroke="#5e9074" stroke-width="1.51"/><path d="M2102,1502L2118,1301L1820,1249Z" fill="#00481d" stroke="#00481d" stroke-width="1.51"/><path d="M2054,945L2118,1301L2089,688Z" fill="#0d642d" stroke="#0d642d" stroke-width="1.51"/><path d="M2089,688L2118,1301L2091,405Z" fill="#1a6f3c" stroke="#1a6f3c" stroke-width="1.51"/><path d="M1796,1579L2102,1502L1820,1249Z" fill="#00471c" stroke="#00471c" stroke-width="1.51"/></svg>